<mxfile host="app.diagrams.net" modified="2023-08-10T10:12:02.048Z" agent="Mozilla/5.0 (Macintosh; Intel Mac OS X 10.15; rv:102.0) Gecko/20100101 Firefox/102.0" version="21.6.7" etag="1n1mWei56k9IQxSEC-dU" type="github">
  <diagram name="Page-1" id="YpCQyT3UEQiNMRxKLaOp">
    <mxGraphModel>
      <root>
        <mxCell id="0" />
        <mxCell id="1" parent="0" />
      </root>
    </mxGraphModel>
  </diagram>
</mxfile>
